<svg width="1000" height="1000" viewBox="0 0 1000 1000" fill="none" xmlns="http://www.w3.org/2000/svg">
<mask id="path-1-inside-1_111_203" fill="white">
<path d="M499.664 319.882L778.901 40.6455L858.684 120.427L579.446 399.664L858.684 678.901L778.901 758.684L499.664 479.445L220.427 758.684L140.645 678.901L419.882 399.663L140.646 120.427L220.427 40.6445L499.664 319.882Z"/>
</mask>
<path d="M499.664 319.882L778.901 40.6455L858.684 120.427L579.446 399.664L858.684 678.901L778.901 758.684L499.664 479.445L220.427 758.684L140.645 678.901L419.882 399.663L140.646 120.427L220.427 40.6445L499.664 319.882Z" fill="#C2E0D2"/>
<path d="M499.664 319.882L492.593 326.953L499.664 334.024L506.735 326.953L499.664 319.882ZM778.901 40.6455L785.972 33.5744L778.901 26.5034L771.83 33.5744L778.901 40.6455ZM858.684 120.427L865.755 127.498L872.826 120.427L865.755 113.356L858.684 120.427ZM579.446 399.664L572.375 392.593L565.304 399.664L572.375 406.735L579.446 399.664ZM858.684 678.901L865.755 685.972L872.826 678.901L865.755 671.83L858.684 678.901ZM778.901 758.684L771.83 765.755L778.901 772.826L785.972 765.755L778.901 758.684ZM499.664 479.445L506.735 472.374L499.664 465.303L492.593 472.374L499.664 479.445ZM220.427 758.684L213.356 765.755L220.427 772.826L227.498 765.755L220.427 758.684ZM140.645 678.901L133.573 671.83L126.502 678.901L133.573 685.972L140.645 678.901ZM419.882 399.663L426.953 406.734L434.024 399.663L426.953 392.592L419.882 399.663ZM140.646 120.427L133.574 113.356L126.503 120.427L133.574 127.498L140.646 120.427ZM220.427 40.6445L227.498 33.5735L220.427 26.5024L213.356 33.5735L220.427 40.6445ZM499.664 319.882L506.735 326.953L785.972 47.7166L778.901 40.6455L771.83 33.5744L492.593 312.811L499.664 319.882ZM778.901 40.6455L771.83 47.7166L851.613 127.498L858.684 120.427L865.755 113.356L785.972 33.5744L778.901 40.6455ZM858.684 120.427L851.613 113.356L572.375 392.593L579.446 399.664L586.517 406.735L865.755 127.498L858.684 120.427ZM579.446 399.664L572.375 406.735L851.613 685.972L858.684 678.901L865.755 671.83L586.517 392.593L579.446 399.664ZM858.684 678.901L851.613 671.83L771.83 751.613L778.901 758.684L785.972 765.755L865.755 685.972L858.684 678.901ZM778.901 758.684L785.972 751.613L506.735 472.374L499.664 479.445L492.593 486.516L771.83 765.755L778.901 758.684ZM499.664 479.445L492.593 472.374L213.356 751.613L220.427 758.684L227.498 765.755L506.735 486.516L499.664 479.445ZM220.427 758.684L227.498 751.613L147.716 671.83L140.645 678.901L133.573 685.972L213.356 765.755L220.427 758.684ZM140.645 678.901L147.716 685.972L426.953 406.734L419.882 399.663L412.811 392.592L133.573 671.83L140.645 678.901ZM419.882 399.663L426.953 392.592L147.717 113.356L140.646 120.427L133.574 127.498L412.811 406.734L419.882 399.663ZM140.646 120.427L147.717 127.498L227.498 47.7156L220.427 40.6445L213.356 33.5735L133.574 113.356L140.646 120.427ZM220.427 40.6445L213.356 47.7156L492.593 326.953L499.664 319.882L506.735 312.811L227.498 33.5735L220.427 40.6445Z" fill="#0C0B22" mask="url(#path-1-inside-1_111_203)"/>
<path d="M158.746 843.7C157.279 841.1 155.879 839.3 154.546 838.3C153.279 837.233 151.913 836.7 150.446 836.7C150.246 836.7 150.146 836.5 150.146 836.1C150.146 835.7 150.246 835.5 150.446 835.5L155.146 835.6C156.146 835.667 157.479 835.7 159.146 835.7C160.746 835.7 162.113 835.667 163.246 835.6C164.446 835.533 165.246 835.5 165.646 835.5C166.046 835.5 166.346 835.633 166.546 835.9C166.746 836.1 166.979 836.567 167.246 837.3C167.379 837.567 167.579 838.033 167.846 838.7C168.179 839.3 168.546 839.967 168.946 840.7L192.546 883.7L191.846 898.7C191.846 898.9 191.646 899.067 191.246 899.2C190.913 899.4 190.546 899.5 190.146 899.5C189.546 899.5 189.146 899.3 188.946 898.9L158.746 843.7ZM140.046 898C139.846 898 139.746 897.8 139.746 897.4C139.746 897 139.846 896.8 140.046 896.8C142.579 896.8 144.746 895.867 146.546 894C148.413 892.133 149.613 889.6 150.146 886.4L158.946 837.8L161.646 838L152.946 886.4C152.813 887.067 152.746 888 152.746 889.2C152.746 891.6 153.346 893.467 154.546 894.8C155.746 896.133 157.413 896.8 159.546 896.8C159.679 896.8 159.746 897 159.746 897.4C159.746 897.8 159.679 898 159.546 898C157.813 898 156.479 897.967 155.546 897.9L149.846 897.8L144.446 897.9C143.446 897.967 141.979 898 140.046 898ZM189.946 892.6L198.246 847.1C198.446 845.967 198.546 844.967 198.546 844.1C198.546 841.767 197.946 839.967 196.746 838.7C195.546 837.367 193.879 836.7 191.746 836.7C191.546 836.7 191.446 836.5 191.446 836.1C191.446 835.7 191.546 835.5 191.746 835.5L195.346 835.6C197.746 835.733 199.779 835.8 201.446 835.8C202.646 835.8 204.446 835.733 206.846 835.6L211.246 835.5C211.379 835.5 211.446 835.7 211.446 836.1C211.446 836.5 211.379 836.7 211.246 836.7C208.713 836.7 206.513 837.633 204.646 839.5C202.846 841.367 201.646 843.9 201.046 847.1L191.846 898.7L189.946 892.6ZM221.573 899.4C217.173 899.4 213.807 898 211.473 895.2C209.207 892.333 208.073 888.633 208.073 884.1C208.073 882.1 208.24 880.3 208.573 878.7C209.307 874.7 210.74 871.133 212.873 868C215.073 864.867 217.707 862.433 220.773 860.7C223.84 858.967 227.14 858.1 230.673 858.1C235.14 858.1 238.54 859.467 240.873 862.2C243.273 864.867 244.473 868.467 244.473 873C244.473 874.8 244.273 876.7 243.873 878.7C243.007 883.1 241.407 886.867 239.073 890C236.807 893.067 234.107 895.4 230.973 897C227.907 898.6 224.773 899.4 221.573 899.4ZM224.973 896.9C227.107 896.9 228.94 895.667 230.473 893.2C232.073 890.733 233.24 887.367 233.973 883.1C234.44 880.5 234.673 877.867 234.673 875.2C234.673 870.867 234.007 867.333 232.673 864.6C231.407 861.867 229.64 860.5 227.373 860.5C225.373 860.5 223.573 861.667 221.973 864C220.44 866.333 219.273 869.8 218.473 874.4C218.007 877 217.773 879.633 217.773 882.3C217.773 886.633 218.407 890.167 219.673 892.9C220.94 895.567 222.707 896.9 224.973 896.9ZM272.531 898C272.331 898 272.231 897.8 272.231 897.4C272.231 897 272.331 896.8 272.531 896.8C274.331 896.8 275.665 896.633 276.531 896.3C277.465 895.967 278.165 895.333 278.631 894.4C279.098 893.467 279.498 891.967 279.831 889.9L288.031 843.6C288.298 842.467 288.431 841.367 288.431 840.3C288.431 838.9 288.031 837.967 287.231 837.5C286.431 836.967 285.031 836.7 283.031 836.7C282.831 836.7 282.731 836.5 282.731 836.1C282.731 835.7 282.831 835.5 283.031 835.5L287.631 835.6C290.298 835.733 292.431 835.8 294.031 835.8C296.031 835.8 298.365 835.733 301.031 835.6L305.331 835.5C305.531 835.5 305.631 835.7 305.631 836.1C305.631 836.5 305.531 836.7 305.331 836.7C303.531 836.7 302.165 836.9 301.231 837.3C300.298 837.7 299.598 838.367 299.131 839.3C298.731 840.233 298.365 841.733 298.031 843.8L289.831 889.9C289.565 891.167 289.431 892.3 289.431 893.3C289.431 894.7 289.831 895.633 290.631 896.1C291.431 896.567 292.831 896.8 294.831 896.8C294.965 896.8 295.031 897 295.031 897.4C295.031 897.8 294.965 898 294.831 898C292.965 898 291.465 897.967 290.331 897.9L283.631 897.8L277.131 897.9C275.998 897.967 274.465 898 272.531 898ZM358.625 898.9C355.425 898.9 353.825 897 353.825 893.2C353.825 891.867 353.958 890.5 354.225 889.1L357.225 873.2C357.558 871.2 357.725 869.667 357.725 868.6C357.725 865.4 356.758 863.8 354.825 863.8C353.092 863.8 351.258 865.067 349.325 867.6C347.392 870.067 345.525 873.8 343.725 878.8C341.992 883.8 340.558 889.8 339.425 896.8L337.625 896.7C338.892 888.7 340.658 881.8 342.925 876C345.258 870.2 347.892 865.767 350.825 862.7C353.758 859.633 356.825 858.1 360.025 858.1C364.292 858.1 366.425 860.8 366.425 866.2C366.425 868 366.258 869.7 365.925 871.3L362.725 889.1C362.525 890.1 362.425 890.9 362.425 891.5C362.425 893.033 362.958 893.8 364.025 893.8C364.692 893.8 365.392 893.533 366.125 893C366.925 892.4 367.958 891.5 369.225 890.3C369.358 890.167 369.492 890.1 369.625 890.1C369.825 890.1 369.992 890.233 370.125 890.5C370.258 890.7 370.225 890.9 370.025 891.1C367.758 893.767 365.758 895.733 364.025 897C362.292 898.267 360.492 898.9 358.625 898.9ZM311.625 898.8C309.425 898.8 308.325 898.533 308.325 898L308.725 895.9C309.392 892.767 309.758 891 309.825 890.6L313.925 868.3C314.058 867.7 314.125 866.967 314.125 866.1C314.125 864.3 313.558 863.4 312.425 863.4C311.025 863.4 309.092 864.733 306.625 867.4C306.558 867.467 306.458 867.5 306.325 867.5C306.125 867.5 305.958 867.4 305.825 867.2C305.692 866.933 305.692 866.7 305.825 866.5C308.225 863.7 310.358 861.667 312.225 860.4C314.158 859.133 316.092 858.5 318.025 858.5C321.158 858.5 322.725 860.267 322.725 863.8C322.725 864.8 322.625 865.9 322.425 867.1L317.225 896.8C316.892 898.133 315.025 898.8 311.625 898.8ZM333.825 898.8C331.625 898.8 330.525 898.533 330.525 898L330.925 895.9C331.592 892.767 331.958 891 332.025 890.6L335.325 873C335.658 871.133 335.825 869.7 335.825 868.7C335.825 867.033 335.525 865.8 334.925 865C334.392 864.2 333.625 863.8 332.625 863.8C330.825 863.8 328.925 865.133 326.925 867.8C324.992 870.4 323.158 874.2 321.425 879.2C319.692 884.2 318.292 890.067 317.225 896.8L315.425 896.7C316.692 888.833 318.425 882 320.625 876.2C322.892 870.4 325.492 865.933 328.425 862.8C331.425 859.667 334.592 858.1 337.925 858.1C340.058 858.1 341.692 858.8 342.825 860.2C343.958 861.533 344.525 863.567 344.525 866.3C344.525 867.5 344.358 869.1 344.025 871.1L339.425 896.8C339.292 897.4 338.758 897.867 337.825 898.2C336.892 898.6 335.558 898.8 333.825 898.8ZM380.382 899.3C378.315 899.3 376.682 898.667 375.482 897.4C374.282 896.133 373.682 894.233 373.682 891.7C373.682 887.233 375.149 882.367 378.082 877.1C381.082 871.767 384.749 867.267 389.082 863.6C393.482 859.933 397.615 858.1 401.482 858.1C403.749 858.1 405.849 858.733 407.782 860C409.715 861.267 410.782 863.133 410.982 865.6L404.982 862.3C406.115 862.167 407.282 861.633 408.482 860.7C409.749 859.767 410.815 858.633 411.682 857.3C411.815 857.167 411.949 857.1 412.082 857.1C412.282 857.1 412.482 857.167 412.682 857.3C412.882 857.433 412.949 857.533 412.882 857.6L407.082 889.1C406.882 889.967 406.782 890.733 406.782 891.4C406.782 893 407.249 893.8 408.182 893.8C409.449 893.8 411.249 892.633 413.582 890.3C413.649 890.233 413.749 890.2 413.882 890.2C414.082 890.2 414.249 890.333 414.382 890.6C414.515 890.8 414.515 890.967 414.382 891.1C410.115 896.3 406.382 898.9 403.182 898.9C401.449 898.9 400.182 898.433 399.382 897.5C398.582 896.5 398.182 894.967 398.182 892.9C398.182 891.767 398.282 890.5 398.482 889.1L400.982 875.1L403.082 873.4C401.549 878.667 399.515 883.267 396.982 887.2C394.449 891.133 391.715 894.133 388.782 896.2C385.915 898.267 383.115 899.3 380.382 899.3ZM386.782 892C388.782 892 390.815 890.967 392.882 888.9C395.015 886.767 396.849 884.2 398.382 881.2C399.982 878.133 401.015 875.3 401.482 872.7C401.682 871.567 401.782 870.567 401.782 869.7C401.782 867.633 401.315 866 400.382 864.8C399.449 863.6 398.149 863 396.482 863C394.615 863 392.749 863.767 390.882 865.3C389.082 866.833 387.482 868.967 386.082 871.7C384.749 874.433 383.782 877.467 383.182 880.8C382.849 882.933 382.682 884.533 382.682 885.6C382.682 887.8 383.049 889.433 383.782 890.5C384.515 891.5 385.515 892 386.782 892ZM427.516 926.1C422.649 926.1 418.816 925.133 416.016 923.2C413.216 921.333 411.816 918.967 411.816 916.1C411.816 913.1 413.249 910.367 416.116 907.9C418.982 905.433 423.216 902.733 428.816 899.8L429.516 900.6C426.982 902.267 424.882 904.067 423.216 906C421.616 907.933 420.816 910.3 420.816 913.1C420.816 915.967 421.949 918.333 424.216 920.2C426.482 922.067 429.282 923 432.616 923C435.682 923 437.949 922.233 439.416 920.7C440.882 919.233 441.616 917.467 441.616 915.4C441.616 913.667 441.082 912.133 440.016 910.8C439.016 909.533 437.816 908.467 436.416 907.6C435.016 906.733 433.082 905.7 430.616 904.5C427.616 903.1 425.382 901.833 423.916 900.7C422.449 899.567 421.716 898.2 421.716 896.6C421.716 894.867 422.449 893.2 423.916 891.6C425.449 890 427.816 888.033 431.016 885.7L431.716 886.4C431.049 886.733 430.482 887.333 430.016 888.2C429.616 889 429.416 889.8 429.416 890.6C429.416 892.133 430.082 893.4 431.416 894.4C432.749 895.4 434.882 896.633 437.816 898.1C440.416 899.367 442.482 900.467 444.016 901.4C445.616 902.4 446.982 903.667 448.116 905.2C449.249 906.733 449.816 908.567 449.816 910.7C449.816 913.767 448.782 916.467 446.716 918.8C444.649 921.133 441.916 922.933 438.516 924.2C435.116 925.467 431.449 926.1 427.516 926.1ZM431.916 888.2C428.449 888.2 425.782 887.133 423.916 885C422.049 882.867 421.116 880.133 421.116 876.8C421.116 875.733 421.216 874.6 421.416 873.4C422.216 869.2 424.282 865.733 427.616 863C430.949 860.2 434.749 858.8 439.016 858.8C442.549 858.8 445.249 859.833 447.116 861.9C449.049 863.967 450.016 866.6 450.016 869.8C450.016 871.133 449.882 872.333 449.616 873.4C448.682 877.867 446.516 881.467 443.116 884.2C439.716 886.867 435.982 888.2 431.916 888.2ZM434.516 886C435.982 886 437.316 884.933 438.516 882.8C439.782 880.6 440.582 877.767 440.916 874.3C441.049 872.967 441.116 871.9 441.116 871.1C441.116 868.3 440.749 865.9 440.016 863.9C439.282 861.9 438.149 860.9 436.616 860.9C435.149 860.9 433.782 862.033 432.516 864.3C431.249 866.567 430.449 869.367 430.116 872.7C429.982 874.3 429.916 875.433 429.916 876.1C429.916 879.033 430.349 881.433 431.216 883.3C432.082 885.1 433.182 886 434.516 886ZM442.716 862.7C444.716 861.433 446.916 860.4 449.316 859.6C451.782 858.8 453.982 858.4 455.916 858.4C456.249 858.4 456.416 858.933 456.416 860C456.416 861.133 456.249 862.3 455.916 863.5C455.649 864.7 455.382 865.2 455.116 865C454.049 864.2 452.816 863.6 451.416 863.2C450.016 862.733 448.616 862.5 447.216 862.5C445.616 862.5 444.149 862.8 442.816 863.4L442.716 862.7ZM470.113 899.2C465.513 899.2 462.047 897.8 459.713 895C457.447 892.2 456.313 888.667 456.313 884.4C456.313 882.933 456.48 881.3 456.813 879.5C457.48 875.9 458.947 872.467 461.213 869.2C463.547 865.933 466.447 863.267 469.913 861.2C473.38 859.133 477.113 858.1 481.113 858.1C483.647 858.1 485.613 858.533 487.013 859.4C488.413 860.267 489.113 861.467 489.113 863C489.113 865.333 487.78 867.567 485.113 869.7C482.447 871.767 478.98 873.533 474.713 875C470.447 876.467 466.013 877.433 461.413 877.9L461.613 876.6C467.08 875.733 471.347 874.333 474.413 872.4C477.547 870.467 479.113 867.8 479.113 864.4C479.113 863.267 478.813 862.4 478.213 861.8C477.68 861.133 476.913 860.8 475.913 860.8C473.713 860.8 471.78 862.233 470.113 865.1C468.447 867.967 467.247 871.667 466.513 876.2C466.247 877.8 466.113 879.533 466.113 881.4C466.113 885.467 466.947 888.733 468.613 891.2C470.28 893.6 472.747 894.8 476.013 894.8C477.413 894.8 478.913 894.567 480.513 894.1C482.18 893.567 483.68 892.767 485.013 891.7H485.113C485.313 891.7 485.48 891.8 485.613 892C485.813 892.2 485.847 892.367 485.713 892.5C483.313 894.833 480.78 896.533 478.113 897.6C475.447 898.667 472.78 899.2 470.113 899.2ZM509.893 898C509.626 898 509.493 897.8 509.493 897.4C509.493 897 509.626 896.8 509.893 896.8C511.76 896.8 513.96 895.733 516.493 893.6C519.026 891.467 521.393 888.4 523.593 884.4L551.493 834.6C551.626 834.4 551.893 834.3 552.293 834.3C552.493 834.3 552.693 834.333 552.893 834.4C553.093 834.467 553.226 834.567 553.293 834.7L564.193 889.6C564.593 891.8 564.926 893.333 565.193 894.2C565.526 895.067 566.093 895.733 566.893 896.2C567.693 896.6 568.926 896.8 570.593 896.8C570.86 896.8 570.993 897 570.993 897.4C570.993 897.8 570.86 898 570.593 898C569.526 898 567.86 897.933 565.593 897.8C563.06 897.667 561.026 897.6 559.493 897.6C558.026 897.6 556.093 897.667 553.693 897.8C551.56 897.933 549.96 898 548.893 898C548.626 898 548.493 897.8 548.493 897.4C548.493 897 548.626 896.8 548.893 896.8C550.893 896.8 552.326 896.5 553.193 895.9C554.06 895.3 554.493 894.267 554.493 892.8C554.493 891.733 554.36 890.667 554.093 889.6L545.593 847.5L551.193 839.8L526.293 885.1C524.56 888.233 523.693 890.667 523.693 892.4C523.693 893.933 524.326 895.067 525.593 895.8C526.86 896.467 528.793 896.8 531.393 896.8C531.66 896.8 531.76 897 531.693 897.4C531.693 897.8 531.56 898 531.293 898C530.426 898 528.726 897.933 526.193 897.8C523.126 897.667 520.76 897.6 519.093 897.6C517.693 897.6 516.06 897.667 514.193 897.8C512.326 897.933 510.893 898 509.893 898ZM531.893 872.3H553.793L553.993 875.1H530.393L531.893 872.3ZM590.982 899.3C588.049 899.3 585.582 898.2 583.582 896C581.582 893.733 580.582 891.067 580.582 888C580.582 886.2 580.949 884.367 581.682 882.5C582.482 880.567 583.682 878.1 585.282 875.1C586.682 872.367 587.582 870.6 587.982 869.8C588.515 868.733 588.782 868.033 588.782 867.7C588.782 867.233 588.415 867 587.682 867H582.882C580.549 867 578.849 867.333 577.782 868C576.715 868.667 575.915 869.767 575.382 871.3C575.249 871.567 575.049 871.7 574.782 871.7C574.582 871.7 574.415 871.633 574.282 871.5C574.149 871.367 574.115 871.2 574.182 871C575.249 867.867 576.182 865.5 576.982 863.9C577.849 862.3 578.849 861.133 579.982 860.4C581.182 859.667 582.749 859.3 584.682 859.3H593.982C594.715 859.3 595.082 859.433 595.082 859.7C595.082 859.9 594.982 860.167 594.782 860.5C593.382 863.767 592.082 867.133 590.882 870.6C589.749 874 589.015 876.833 588.682 879.1C588.549 879.833 588.482 880.833 588.482 882.1C588.482 885.033 589.149 887.367 590.482 889.1C591.882 890.767 593.715 891.6 595.982 891.6C597.849 891.6 599.682 891.033 601.482 889.9C603.282 888.767 604.815 887.2 606.082 885.2C607.415 883.133 608.249 880.767 608.582 878.1C608.649 877.633 608.682 876.967 608.682 876.1C608.682 874.5 608.415 873.167 607.882 872.1C607.349 870.967 606.482 869.733 605.282 868.4C604.415 867.467 603.749 866.633 603.282 865.9C602.882 865.1 602.682 864.233 602.682 863.3C602.682 861.7 603.182 860.5 604.182 859.7C605.249 858.833 606.582 858.4 608.182 858.4C609.982 858.4 611.315 859 612.182 860.2C613.115 861.4 613.582 863.533 613.582 866.6C613.582 868.4 613.515 869.867 613.382 871C612.915 875.933 611.515 880.6 609.182 885C606.849 889.333 604.015 892.8 600.682 895.4C597.415 898 594.182 899.3 590.982 899.3ZM625.206 899.3C623.14 899.3 621.506 898.667 620.306 897.4C619.106 896.133 618.506 894.233 618.506 891.7C618.506 887.233 619.973 882.367 622.906 877.1C625.906 871.767 629.573 867.267 633.906 863.6C638.306 859.933 642.44 858.1 646.306 858.1C648.573 858.1 650.673 858.733 652.606 860C654.54 861.267 655.606 863.133 655.806 865.6L649.806 862.3C650.94 862.167 652.106 861.633 653.306 860.7C654.573 859.767 655.64 858.633 656.506 857.3C656.64 857.167 656.773 857.1 656.906 857.1C657.106 857.1 657.306 857.167 657.506 857.3C657.706 857.433 657.773 857.533 657.706 857.6L651.906 889.1C651.706 889.967 651.606 890.733 651.606 891.4C651.606 893 652.073 893.8 653.006 893.8C654.273 893.8 656.073 892.633 658.406 890.3C658.473 890.233 658.573 890.2 658.706 890.2C658.906 890.2 659.073 890.333 659.206 890.6C659.34 890.8 659.34 890.967 659.206 891.1C654.94 896.3 651.206 898.9 648.006 898.9C646.273 898.9 645.006 898.433 644.206 897.5C643.406 896.5 643.006 894.967 643.006 892.9C643.006 891.767 643.106 890.5 643.306 889.1L645.806 875.1L647.906 873.4C646.373 878.667 644.34 883.267 641.806 887.2C639.273 891.133 636.54 894.133 633.606 896.2C630.74 898.267 627.94 899.3 625.206 899.3ZM631.606 892C633.606 892 635.64 890.967 637.706 888.9C639.84 886.767 641.673 884.2 643.206 881.2C644.806 878.133 645.84 875.3 646.306 872.7C646.506 871.567 646.606 870.567 646.606 869.7C646.606 867.633 646.14 866 645.206 864.8C644.273 863.6 642.973 863 641.306 863C639.44 863 637.573 863.767 635.706 865.3C633.906 866.833 632.306 868.967 630.906 871.7C629.573 874.433 628.606 877.467 628.006 880.8C627.673 882.933 627.506 884.533 627.506 885.6C627.506 887.8 627.873 889.433 628.606 890.5C629.34 891.5 630.34 892 631.606 892ZM671.94 898.9C668.74 898.9 667.14 897.033 667.14 893.3C667.14 892.3 667.307 890.9 667.64 889.1L671.74 868.3C671.94 867.367 672.04 866.6 672.04 866C672.04 865.133 671.873 864.5 671.54 864.1C671.207 863.633 670.773 863.4 670.24 863.4C668.84 863.4 666.94 864.733 664.54 867.4C664.473 867.467 664.373 867.5 664.24 867.5C663.973 867.5 663.773 867.4 663.64 867.2C663.507 866.933 663.507 866.7 663.64 866.5C666.04 863.7 668.207 861.667 670.14 860.4C672.073 859.133 673.973 858.5 675.84 858.5C679.04 858.5 680.64 860.233 680.64 863.7C680.64 864.833 680.507 865.967 680.24 867.1L676.04 889.1C675.907 889.7 675.84 890.467 675.84 891.4C675.84 893 676.34 893.8 677.34 893.8C678.007 893.8 678.74 893.5 679.54 892.9C680.407 892.3 681.44 891.433 682.64 890.3C682.773 890.167 682.907 890.1 683.04 890.1C683.24 890.1 683.407 890.233 683.54 890.5C683.673 890.7 683.64 890.9 683.44 891.1C681.173 893.767 679.14 895.733 677.34 897C675.607 898.267 673.807 898.9 671.94 898.9ZM678.64 848.1C676.907 848.1 675.507 847.6 674.44 846.6C673.44 845.533 672.94 844.1 672.94 842.3C672.94 840.7 673.44 839.4 674.44 838.4C675.507 837.4 676.907 836.9 678.64 836.9C680.373 836.9 681.707 837.4 682.64 838.4C683.64 839.4 684.14 840.7 684.14 842.3C684.14 844.167 683.64 845.6 682.64 846.6C681.707 847.6 680.373 848.1 678.64 848.1ZM695.447 898.9C692.247 898.9 690.647 897 690.647 893.2C690.647 891.867 690.78 890.5 691.047 889.1L700.247 839.1C700.447 837.767 700.547 836.667 700.547 835.8C700.547 833.867 699.914 832.9 698.647 832.9C697.847 832.9 696.447 833.367 694.447 834.3H694.347C694.014 834.3 693.814 834.133 693.747 833.8C693.68 833.4 693.78 833.167 694.047 833.1L709.547 825.5H709.747C710.014 825.5 710.247 825.6 710.447 825.8C710.714 826 710.814 826.167 710.747 826.3L699.547 889.1C699.347 890.1 699.247 890.933 699.247 891.6C699.247 893.067 699.747 893.8 700.747 893.8C701.414 893.8 702.147 893.5 702.947 892.9C703.814 892.3 704.847 891.433 706.047 890.3C706.18 890.167 706.314 890.1 706.447 890.1C706.647 890.1 706.814 890.233 706.947 890.5C707.08 890.7 707.047 890.9 706.847 891.1C704.58 893.767 702.58 895.733 700.847 897C699.114 898.267 697.314 898.9 695.447 898.9ZM719.054 899.3C716.987 899.3 715.354 898.667 714.154 897.4C712.954 896.133 712.354 894.233 712.354 891.7C712.354 887.233 713.821 882.367 716.754 877.1C719.754 871.767 723.421 867.267 727.754 863.6C732.154 859.933 736.287 858.1 740.154 858.1C742.421 858.1 744.521 858.733 746.454 860C748.387 861.267 749.454 863.133 749.654 865.6L743.654 862.3C744.787 862.167 745.954 861.633 747.154 860.7C748.421 859.767 749.487 858.633 750.354 857.3C750.487 857.167 750.621 857.1 750.754 857.1C750.954 857.1 751.154 857.167 751.354 857.3C751.554 857.433 751.621 857.533 751.554 857.6L745.754 889.1C745.554 889.967 745.454 890.733 745.454 891.4C745.454 893 745.921 893.8 746.854 893.8C748.121 893.8 749.921 892.633 752.254 890.3C752.321 890.233 752.421 890.2 752.554 890.2C752.754 890.2 752.921 890.333 753.054 890.6C753.187 890.8 753.187 890.967 753.054 891.1C748.787 896.3 745.054 898.9 741.854 898.9C740.121 898.9 738.854 898.433 738.054 897.5C737.254 896.5 736.854 894.967 736.854 892.9C736.854 891.767 736.954 890.5 737.154 889.1L739.654 875.1L741.754 873.4C740.221 878.667 738.187 883.267 735.654 887.2C733.121 891.133 730.387 894.133 727.454 896.2C724.587 898.267 721.787 899.3 719.054 899.3ZM725.454 892C727.454 892 729.487 890.967 731.554 888.9C733.687 886.767 735.521 884.2 737.054 881.2C738.654 878.133 739.687 875.3 740.154 872.7C740.354 871.567 740.454 870.567 740.454 869.7C740.454 867.633 739.987 866 739.054 864.8C738.121 863.6 736.821 863 735.154 863C733.287 863 731.421 863.767 729.554 865.3C727.754 866.833 726.154 868.967 724.754 871.7C723.421 874.433 722.454 877.467 721.854 880.8C721.521 882.933 721.354 884.533 721.354 885.6C721.354 887.8 721.721 889.433 722.454 890.5C723.187 891.5 724.187 892 725.454 892ZM770.588 899.3C767.054 899.3 764.288 898.6 762.288 897.2C760.354 895.733 759.388 893.733 759.388 891.2C759.388 890.733 759.454 890.1 759.588 889.3L768.788 839.1C768.988 837.767 769.088 836.667 769.088 835.8C769.088 833.867 768.454 832.9 767.188 832.9C766.388 832.9 764.988 833.367 762.988 834.3H762.888C762.621 834.3 762.421 834.133 762.288 833.8C762.221 833.4 762.321 833.167 762.588 833.1L778.088 825.5H778.288C778.554 825.5 778.788 825.6 778.988 825.8C779.254 826 779.354 826.167 779.288 826.3L768.288 888.4C768.221 888.733 768.188 889.267 768.188 890C768.188 891.867 768.754 893.433 769.887 894.7C771.088 895.9 772.554 896.5 774.288 896.5C776.288 896.5 778.254 895.7 780.188 894.1C782.121 892.433 783.821 890.067 785.288 887C786.754 883.867 787.821 880.2 788.488 876C788.821 874.6 788.988 873.033 788.988 871.3C788.988 869.3 788.621 867.733 787.888 866.6C787.221 865.4 786.154 864.8 784.688 864.8C781.021 864.8 777.688 867 774.688 871.4C771.688 875.733 769.554 881.4 768.288 888.4L767.188 886.4C767.988 881.333 769.554 876.633 771.888 872.3C774.221 867.967 777.021 864.533 780.288 862C783.554 859.4 786.921 858.1 790.388 858.1C792.988 858.1 795.021 859.1 796.488 861.1C797.954 863.033 798.688 865.667 798.688 869C798.688 870.2 798.588 871.5 798.388 872.9C797.388 878.3 795.321 883 792.188 887C789.054 891 785.488 894.067 781.488 896.2C777.554 898.267 773.921 899.3 770.588 899.3ZM809.705 898.9C806.505 898.9 804.905 897 804.905 893.2C804.905 891.867 805.038 890.5 805.305 889.1L814.505 839.1C814.705 837.767 814.805 836.667 814.805 835.8C814.805 833.867 814.171 832.9 812.905 832.9C812.105 832.9 810.705 833.367 808.705 834.3H808.605C808.271 834.3 808.071 834.133 808.005 833.8C807.938 833.4 808.038 833.167 808.305 833.1L823.805 825.5H824.005C824.271 825.5 824.505 825.6 824.705 825.8C824.971 826 825.071 826.167 825.005 826.3L813.805 889.1C813.605 890.1 813.505 890.933 813.505 891.6C813.505 893.067 814.005 893.8 815.005 893.8C815.671 893.8 816.405 893.5 817.205 892.9C818.071 892.3 819.105 891.433 820.305 890.3C820.438 890.167 820.571 890.1 820.705 890.1C820.905 890.1 821.071 890.233 821.205 890.5C821.338 890.7 821.305 890.9 821.105 891.1C818.838 893.767 816.838 895.733 815.105 897C813.371 898.267 811.571 898.9 809.705 898.9ZM841.012 899.2C836.412 899.2 832.945 897.8 830.612 895C828.345 892.2 827.212 888.667 827.212 884.4C827.212 882.933 827.378 881.3 827.712 879.5C828.378 875.9 829.845 872.467 832.112 869.2C834.445 865.933 837.345 863.267 840.812 861.2C844.278 859.133 848.012 858.1 852.012 858.1C854.545 858.1 856.512 858.533 857.912 859.4C859.312 860.267 860.012 861.467 860.012 863C860.012 865.333 858.678 867.567 856.012 869.7C853.345 871.767 849.878 873.533 845.612 875C841.345 876.467 836.912 877.433 832.312 877.9L832.512 876.6C837.978 875.733 842.245 874.333 845.312 872.4C848.445 870.467 850.012 867.8 850.012 864.4C850.012 863.267 849.712 862.4 849.112 861.8C848.578 861.133 847.812 860.8 846.812 860.8C844.612 860.8 842.678 862.233 841.012 865.1C839.345 867.967 838.145 871.667 837.412 876.2C837.145 877.8 837.012 879.533 837.012 881.4C837.012 885.467 837.845 888.733 839.512 891.2C841.178 893.6 843.645 894.8 846.912 894.8C848.312 894.8 849.812 894.567 851.412 894.1C853.078 893.567 854.578 892.767 855.912 891.7H856.012C856.212 891.7 856.378 891.8 856.512 892C856.712 892.2 856.745 892.367 856.612 892.5C854.212 894.833 851.678 896.533 849.012 897.6C846.345 898.667 843.678 899.2 841.012 899.2Z" fill="#0C0B22"/>
</svg>
